<svg width="170" height="33" viewBox="0 0 170 33" fill="none" xmlns="http://www.w3.org/2000/svg">
<rect x="31.4131" y="10.1367" width="3.62941" height="10.8882" rx="1.8147" fill="#00DBA8"/>
<g style="mix-blend-mode:multiply">
<rect width="3.62941" height="10.8882" rx="1.8147" transform="matrix(-4.37114e-08 1 1 4.37114e-08 27.7842 13.7656)" fill="#FF4772"/>
</g>
<path d="M17.1425 16.4138C17.1425 13.2567 4.83775 10.4368 6.2477 7.954C7.68831 5.4406 22.6444 3.49424 25.0965 2.11494C27.5792 0.70498 30.3532 0 33.4183 0C37.0045 0 40.1463 0.919538 42.8436 2.75862C45.5409 4.59769 47.426 7.14175 48.4988 10.3908H41.0965C40.3608 8.85822 39.3187 7.70879 37.97 6.94251C36.652 6.17623 35.1195 5.79309 33.3723 5.79309C31.5026 5.79309 29.8321 6.23753 28.3609 7.12642C26.9202 7.98466 25.7861 9.21071 24.9586 10.8046C24.1616 12.3984 23.7632 14.2682 23.7632 16.4138C23.7632 18.5287 24.1616 20.3984 24.9586 22.0229C25.7861 23.6168 26.9202 24.8582 28.3609 25.7471C29.8321 26.6053 31.5026 27.0344 33.3723 27.0344C35.1195 27.0344 36.652 26.6513 37.97 25.885C39.3187 25.0881 40.3608 23.9233 41.0965 22.3908H48.4988C47.426 25.6704 45.5409 28.2298 42.8436 30.0689C40.1769 31.8773 37.0352 32.7815 33.4183 32.7815C30.3532 32.7815 2.6662 32.0919 0.183442 30.7126C-2.26866 29.3026 20.698 27.3563 19.2574 24.8735C17.8475 22.3908 17.1425 19.5708 17.1425 16.4138Z" fill="#00DBA8"/>
<path d="M52.3414 19.6781C52.3414 17.1034 52.8472 14.8199 53.8587 12.8276C54.9008 10.8352 56.2954 9.30266 58.0426 8.22987C59.8203 7.15707 61.7973 6.62067 63.9736 6.62067C65.874 6.62067 67.5291 7.00382 68.9391 7.7701C70.3797 8.53638 71.5291 9.5019 72.3874 10.6666V7.03447H78.8701V32.5057H72.3874V28.7815C71.5598 29.9769 70.4104 30.9731 68.9391 31.77C67.4985 32.5363 65.828 32.9195 63.9276 32.9195C61.782 32.9195 59.8203 32.3677 58.0426 31.2643C56.2954 30.1609 54.9008 28.613 53.8587 26.6206C52.8472 24.5976 52.3414 22.2835 52.3414 19.6781ZM72.3874 19.7701C72.3874 18.2069 72.0809 16.8735 71.4678 15.7701C70.8548 14.636 70.0272 13.7777 68.9851 13.1954C67.9429 12.5823 66.8242 12.2758 65.6288 12.2758C64.4334 12.2758 63.3299 12.567 62.3184 13.1494C61.3069 13.7318 60.4794 14.59 59.8357 15.7241C59.2226 16.8275 58.9161 18.1456 58.9161 19.6781C58.9161 21.2107 59.2226 22.5593 59.8357 23.7241C60.4794 24.8582 61.3069 25.7317 62.3184 26.3448C63.3606 26.9578 64.464 27.2643 65.6288 27.2643C66.8242 27.2643 67.9429 26.9731 68.9851 26.3907C70.0272 25.7777 70.8548 24.9195 71.4678 23.816C72.0809 22.6819 72.3874 21.3333 72.3874 19.7701Z" fill="#00DBA8"/>
<path d="M91.5935 10.9885C92.4211 9.63983 93.4939 8.58236 94.8119 7.81608C96.1605 7.04979 97.6931 6.66665 99.4096 6.66665V13.4253H97.7084C95.6854 13.4253 94.1529 13.9004 93.1107 14.8505C92.0993 15.8007 91.5935 17.4559 91.5935 19.816V32.5057H85.1567V7.03447H91.5935V10.9885Z" fill="#00DBA8"/>
<path d="M127.423 19.2183C127.423 20.1379 127.362 20.9655 127.239 21.7011H108.619C108.772 23.5402 109.415 24.9808 110.55 26.0229C111.684 27.0651 113.078 27.5861 114.733 27.5861C117.124 27.5861 118.825 26.5593 119.837 24.5057H126.779C126.044 26.9578 124.634 28.9808 122.55 30.5746C120.465 32.1379 117.906 32.9195 114.871 32.9195C112.419 32.9195 110.212 32.3831 108.251 31.3103C106.32 30.2068 104.802 28.6589 103.699 26.6666C102.626 24.6743 102.09 22.3754 102.09 19.7701C102.09 17.1341 102.626 14.8199 103.699 12.8276C104.772 10.8352 106.274 9.30266 108.205 8.22987C110.136 7.15707 112.358 6.62067 114.871 6.62067C117.293 6.62067 119.454 7.14175 121.354 8.18389C123.285 9.22603 124.772 10.7126 125.814 12.6437C126.887 14.544 127.423 16.7356 127.423 19.2183ZM120.756 17.3793C120.726 15.7241 120.128 14.4061 118.963 13.4253C117.799 12.4138 116.373 11.908 114.688 11.908C113.094 11.908 111.745 12.3984 110.642 13.3793C109.569 14.3295 108.91 15.6628 108.665 17.3793H120.756Z" fill="#00DBA8"/>
<path d="M132.755 16V4.42346H133.764L141.751 14.4785H141.222V4.42346H142.429V16H141.421L133.449 5.94495H133.979V16H132.755ZM149.499 16.0827C148.661 16.0827 147.906 15.8953 147.233 15.5204C146.572 15.1345 146.048 14.6108 145.662 13.9493C145.276 13.2768 145.083 12.5105 145.083 11.6505C145.083 10.7795 145.276 10.0133 145.662 9.35176C146.048 8.69024 146.572 8.17205 147.233 7.79719C147.895 7.42233 148.65 7.2349 149.499 7.2349C150.359 7.2349 151.12 7.42233 151.781 7.79719C152.454 8.17205 152.977 8.69024 153.352 9.35176C153.738 10.0133 153.931 10.7795 153.931 11.6505C153.931 12.5105 153.738 13.2768 153.352 13.9493C152.977 14.6108 152.454 15.1345 151.781 15.5204C151.109 15.8953 150.348 16.0827 149.499 16.0827ZM149.499 15.0408C150.127 15.0408 150.684 14.903 151.169 14.6274C151.654 14.3407 152.035 13.9438 152.31 13.4366C152.597 12.9184 152.74 12.3231 152.74 11.6505C152.74 10.967 152.597 10.3716 152.31 9.86443C152.035 9.35727 151.654 8.96587 151.169 8.69024C150.684 8.40358 150.133 8.26025 149.516 8.26025C148.898 8.26025 148.347 8.40358 147.862 8.69024C147.377 8.96587 146.991 9.35727 146.704 9.86443C146.417 10.3716 146.274 10.967 146.274 11.6505C146.274 12.3231 146.417 12.9184 146.704 13.4366C146.991 13.9438 147.377 14.3407 147.862 14.6274C148.347 14.903 148.893 15.0408 149.499 15.0408ZM157.856 16L154.581 7.31759H155.706L158.683 15.3716H158.17L161.229 7.31759H162.238L165.265 15.3716H164.752L167.778 7.31759H168.853L165.562 16H164.454L161.544 8.42563H161.891L158.964 16H157.856Z" fill="#FF4772"/>
</svg>
